HIERARCHY
ROOT Hips
{
	OFFSET 0.00000 0.00000 0.00000
	CHANNELS 6 Xposition Yposition Zposition Zrotation Yrotation Xrotation 
	JOINT LHipJoint
	{
		OFFSET 0 0 0
		CHANNELS 3 Zrotation Yrotation Xrotation
		JOINT LeftHip
		{
			OFFSET 1.38691 -1.89057 0.78360
			CHANNELS 3 Zrotation Yrotation Xrotation
			JOINT LeftKnee
			{
				OFFSET 2.59731 -7.13606 0.00000
				CHANNELS 3 Zrotation Yrotation Xrotation
				JOINT LeftAnkle
				{
					OFFSET 2.70078 -7.42033 0.00000
					CHANNELS 3 Zrotation Yrotation Xrotation
					JOINT LeftToe
					{
						OFFSET 0.16751 -0.46024 2.68862
						CHANNELS 3 Zrotation Yrotation Xrotation
						End Site
						{
							OFFSET 0.00000 -0.00000 1.37057
						}
					}
				}
			}
		}
	}
	JOINT RHipJoint
	{
		OFFSET 0 0 0
		CHANNELS 3 Zrotation Yrotation Xrotation
		JOINT RightHip
		{
			OFFSET -1.38190 -1.89056 0.78359
			CHANNELS 3 Zrotation Yrotation Xrotation
			JOINT RightKnee
			{
				OFFSET -2.57785 -7.08258 0.00000
				CHANNELS 3 Zrotation Yrotation Xrotation
				JOINT RightAnkle
				{
					OFFSET -2.77908 -7.63547 0.00000
					CHANNELS 3 Zrotation Yrotation Xrotation
					JOINT RightToe
					{
						OFFSET -0.17921 -0.49237 2.62360
						CHANNELS 3 Zrotation Yrotation Xrotation
						End Site
						{
							OFFSET -0.00000 -0.00000 1.34085
						}
					}
				}
			}
		}
	}
	JOINT lowerback
	{
		OFFSET 0 0 0
		CHANNELS 3 Zrotation Yrotation Xrotation
		JOINT Chest
		{
			OFFSET -0.10749 2.04110 -0.22549
			CHANNELS 3 Zrotation Yrotation Xrotation
			JOINT Chest2
			{
				OFFSET 0.01213 2.05840 0.00691
				CHANNELS 3 Zrotation Yrotation Xrotation
				JOINT lowerneck
				{
					OFFSET 0 0 0
					CHANNELS 3 Zrotation Yrotation Xrotation
					JOINT Neck
					{
						OFFSET 0.06585 1.81215 0.35449
						CHANNELS 3 Zrotation Yrotation Xrotation
						JOINT Head
						{
							OFFSET -0.04315 1.87555 -0.27307
							CHANNELS 3 Zrotation Yrotation Xrotation
							End Site
							{
								OFFSET -0.01775 1.89740 -0.13294
							}
						}
					}
				}
				JOINT LeftCollar
				{
					OFFSET 0 0 0
					CHANNELS 3 Zrotation Yrotation Xrotation
					JOINT LeftShoulder
					{
						OFFSET 2.98012 1.63606 0.28888
CHANNELS 3 Zrotation Xrotation Yrotation
						JOINT LeftElbow
						{
OFFSET 0 -5.598640 -0.000000
CHANNELS 3 Zrotation Xrotation Yrotation
							JOINT LeftWrist
							{
OFFSET 0 -3.595420 -0.000000
CHANNELS 3 Zrotation Xrotation Yrotation
								JOINT lhand
								{
									OFFSET 0 0 0
CHANNELS 3 Zrotation Xrotation Yrotation
									JOINT LFingers
									{
OFFSET 0 -0.572010 -0.000000
CHANNELS 3 Zrotation Xrotation Yrotation
										End Site
										{
OFFSET 0 -0.461170 -0.000000
										}
									}
								}
								JOINT LThumb
								{
OFFSET 0 0.000000 0.000000
CHANNELS 3 Zrotation Xrotation Yrotation
									End Site
									{
OFFSET 0 -0.468210 0.468210
									}
								}
							}
						}
					}
				}
				JOINT RightCollar
				{
					OFFSET 0 0 0
					CHANNELS 3 Zrotation Yrotation Xrotation
					JOINT RightShoulder
					{
						OFFSET -3.08694 1.53706 0.36335
CHANNELS 3 Zrotation Xrotation Yrotation
						JOINT RightElbow
						{
OFFSET 0 -5.809400 -0.000000
CHANNELS 3 Zrotation Xrotation Yrotation
							JOINT RightWrist
							{
OFFSET 0 -3.669530 -0.000000
CHANNELS 3 Zrotation Xrotation Yrotation
								JOINT rhand
								{
									OFFSET 0 0 0
CHANNELS 3 Zrotation Xrotation Yrotation
									JOINT RFingers
									{
OFFSET 0 -0.578430 -0.000000
CHANNELS 3 Zrotation Xrotation Yrotation
										End Site
										{
OFFSET 0 -0.466350 -0.000000
										}
									}
								}
								JOINT RThumb
								{
OFFSET 0 0.000000 0.000000
CHANNELS 3 Zrotation Xrotation Yrotation
									End Site
									{
OFFSET 0 -0.473470 0.473470
									}
								}
							}
						}
					}
				}
			}
		}
	}
}
MOTION
Frames: 12
Frame Time: 0.008333333333333333
0.966485 18.481974 1.621759 -0.405945 14.122822 -0.562087 0.000000 0.000000 0.000000 -23.186607 -19.653337 9.899099 0.999479 6.361947 17.838399 2.500433 -9.354426 -28.459411 0.527705 -4.655052 -12.927294 0.000000 0.000000 0.000000 9.301435 18.424204 -29.663449 -8.206807 -16.269280 53.304152 1.564011 22.961222 -0.081795 -0.001221 -0.228520 0.627938 -3.997381 -1.050484 9.845762 0.564578 -1.821074 0.027433 3.101237 -0.783884 -5.356301 -1.440501 -2.892056 -14.791975 -0.346344 -3.613071 29.882664 -0.413327 -1.796399 12.342775 0.000000 0.000000 0.000000 -0.892485 3.277369 -37.561506 15.889918 -25.371197 3.598632 19.988380 -12.021012 -13.413020 0.000000 0.000000 0.000000 -7.125000 0.000000 0.000000 -6.793941 44.112784 -0.149516 0.000000 0.000000 0.000000 0.674061 1.366685 19.048082 -14.348989 -23.231400 -2.964400 -31.209944 3.697231 8.163871 0.000000 0.000000 0.000000 7.125000 0.000000 0.000000 -3.798150 39.474402 -0.518074
0.976151 18.481421 1.631282 -0.380218 14.040220 -0.493445 0.000000 0.000000 0.000000 -23.250516 -19.668785 9.894957 0.997931 6.357225 17.824548 2.510909 -9.223688 -28.523038 0.526847 -4.651315 -12.916691 0.000000 0.000000 0.000000 9.237010 18.495550 -29.726632 -8.219041 -16.278029 53.347778 1.566527 22.976289 -0.076356 -0.001132 -0.219850 0.604061 -4.013363 -1.051906 9.883739 0.557303 -1.826465 0.040568 3.104238 -0.786259 -5.363123 -1.398502 -2.868892 -14.808411 -0.365549 -3.585074 29.789416 -0.422819 -1.782406 12.306920 0.000000 0.000000 0.000000 -0.854366 3.282991 -37.516527 15.904178 -25.390590 3.604802 20.005058 -12.025743 -13.418908 0.000000 0.000000 0.000000 -7.125000 0.000000 0.000000 -6.779911 44.120861 -0.147820 0.000000 0.000000 0.000000 0.657768 1.371222 19.031447 -14.352217 -23.236054 -2.965701 -31.173893 3.596319 8.138623 0.000000 0.000000 0.000000 7.125000 0.000000 0.000000 -3.766837 39.442094 -0.516768
0.985595 18.480868 1.640884 -0.355344 13.961842 -0.422897 0.000000 0.000000 0.000000 -23.314130 -19.693000 9.894027 0.996162 6.351791 17.808706 2.522596 -9.102499 -28.594284 0.525647 -4.646149 -12.902017 0.000000 0.000000 0.000000 9.173223 18.561957 -29.791210 -8.230727 -16.286383 53.389470 1.569734 22.995212 -0.067636 -0.001100 -0.213376 0.586281 -4.029282 -1.054639 9.925324 0.550370 -1.833731 0.054102 3.108013 -0.789481 -5.371447 -1.354849 -2.841852 -14.823255 -0.386159 -3.551495 29.691639 -0.432200 -1.765932 12.268889 0.000000 0.000000 0.000000 -0.814440 3.290036 -37.464817 15.916670 -25.407582 3.610187 20.020013 -12.025915 -13.424465 0.000000 0.000000 0.000000 -7.125000 0.000000 0.000000 -6.767467 44.128409 -0.146289 0.000000 0.000000 0.000000 0.642197 1.375360 19.021597 -14.359247 -23.246023 -2.968481 -31.134867 3.498910 8.117732 0.000000 0.000000 0.000000 7.125000 0.000000 0.000000 -3.732944 39.414587 -0.514635
0.994807 18.480342 1.650571 -0.332342 13.887329 -0.350511 0.000000 0.000000 0.000000 -23.375719 -19.724249 9.895239 0.994188 6.345658 17.790806 2.535231 -8.990113 -28.671331 0.524252 -4.640148 -12.884987 0.000000 0.000000 0.000000 9.111132 18.624731 -29.856725 -8.241808 -16.294279 53.428976 1.573551 23.017351 -0.055551 -0.001100 -0.209774 0.576421 -4.044231 -1.058140 9.970179 0.543843 -1.842075 0.067711 3.111934 -0.793166 -5.381504 -1.309811 -2.811791 -14.834727 -0.406979 -3.513853 29.588373 -0.441149 -1.747558 12.228034 0.000000 0.000000 0.000000 -0.772376 3.299620 -37.408012 15.928225 -25.423270 3.615135 20.032619 -12.024336 -13.425828 0.000000 0.000000 0.000000 -7.125000 0.000000 0.000000 -6.756334 44.131271 -0.145579 0.000000 0.000000 0.000000 0.628249 1.380706 19.017996 -14.371282 -23.263009 -2.973221 -31.093065 3.406659 8.103790 0.000000 0.000000 0.000000 7.125000 0.000000 0.000000 -3.696538 39.394854 -0.511423
1.003793 18.479873 1.660384 -0.312051 13.816047 -0.276477 0.000000 0.000000 0.000000 -23.433875 -19.760437 9.897588 0.992029 6.338887 17.770899 2.548556 -8.885121 -28.752318 0.522915 -4.634326 -12.868537 0.000000 0.000000 0.000000 9.051634 18.685201 -29.922613 -8.252241 -16.301659 53.466092 1.577931 23.041959 -0.039799 -0.001100 -0.209844 0.576595 -4.057391 -1.061872 10.017919 0.537785 -1.850693 0.081272 3.115388 -0.796967 -5.393233 -1.262662 -2.779427 -14.842178 -0.427754 -3.473448 29.479151 -0.449880 -1.727783 12.184082 0.000000 0.000000 0.000000 -0.727784 3.312661 -37.348199 15.939878 -25.439030 3.620122 20.043395 -12.023669 -13.421925 0.000000 0.000000 0.000000 -7.125000 0.000000 0.000000 -6.745726 44.128373 -0.145800 0.000000 0.000000 0.000000 0.616667 1.388427 19.020179 -14.389543 -23.288812 -2.980427 -31.048039 3.320455 8.098413 0.000000 0.000000 0.000000 7.125000 0.000000 0.000000 -3.657113 39.384737 -0.506894
1.012558 18.479478 1.670491 -0.295074 13.747268 -0.200749 0.000000 0.000000 0.000000 -23.488203 -19.802367 9.901853 0.989502 6.331307 17.748710 2.562691 -8.784914 -28.838311 0.521651 -4.628798 -12.852823 0.000000 0.000000 0.000000 8.995963 18.744346 -29.987838 -8.261717 -16.308450 53.499968 1.582827 23.069439 -0.023533 -0.001100 -0.211976 0.582439 -4.069077 -1.065900 10.068457 0.533126 -1.859458 0.095644 3.119653 -0.800915 -5.405552 -1.208887 -2.742866 -14.852207 -0.455155 -3.426859 29.367574 -0.461409 -1.705357 12.139466 0.000000 0.000000 0.000000 -0.680247 3.331296 -37.284633 15.954328 -25.458692 3.626360 20.049239 -12.024696 -13.420820 0.000000 0.000000 0.000000 -7.125000 0.000000 0.000000 -6.740198 44.127978 -0.145800 0.000000 0.000000 0.000000 0.604348 1.399166 19.036130 -14.416786 -23.327426 -2.991166 -31.002792 3.244412 8.105993 0.000000 0.000000 0.000000 7.125000 0.000000 0.000000 -3.617393 39.389711 -0.500893
1.021070 18.479147 1.680915 -0.282019 13.679059 -0.123061 0.000000 0.000000 0.000000 -23.536773 -19.847335 9.905674 0.986849 6.323030 17.724686 2.577269 -8.686479 -28.926897 0.520451 -4.623587 -12.837995 0.000000 0.000000 0.000000 8.944722 18.804946 -30.053759 -8.270623 -16.314735 53.531756 1.587849 23.097994 -0.007076 -0.001163 -0.216829 0.595685 -4.080068 -1.069294 10.119374 0.530745 -1.867148 0.111661 3.125752 -0.804357 -5.416415 -1.152644 -2.704786 -14.860970 -0.485846 -3.377802 29.250429 -0.474077 -1.681982 12.092447 0.000000 0.000000 0.000000 -0.631002 3.354361 -37.220180 15.972828 -25.483796 3.634307 20.057613 -12.031101 -13.415981 0.000000 0.000000 0.000000 -7.125000 0.000000 0.000000 -6.731634 44.123851 -0.146306 0.000000 0.000000 0.000000 0.592283 1.412879 19.064862 -14.452697 -23.378188 -3.005385 -30.958051 3.168369 8.123508 0.000000 0.000000 0.000000 7.125000 0.000000 0.000000 -3.577990 39.406202 -0.493942
1.029350 18.478958 1.691629 -0.271374 13.610780 -0.042689 0.000000 0.000000 0.000000 -23.581381 -19.894153 9.907991 0.984037 6.314243 17.699024 2.592125 -8.588737 -29.017311 0.519562 -4.619637 -12.826807 0.000000 0.000000 0.000000 8.895847 18.866372 -30.121415 -8.279135 -16.320768 53.562012 1.592945 23.127197 0.008794 -0.001200 -0.222188 0.610472 -4.090844 -1.071814 10.169583 0.529647 -1.873557 0.128761 3.132855 -0.807209 -5.425819 -1.098704 -2.666499 -14.868321 -0.516001 -3.328006 29.129241 -0.485971 -1.658498 12.043733 0.000000 0.000000 0.000000 -0.580192 3.382241 -37.153861 15.995585 -25.514642 3.644071 20.064841 -12.042683 -13.409794 0.000000 0.000000 0.000000 -7.125000 0.000000 0.000000 -6.723879 44.118163 -0.147065 0.000000 0.000000 0.000000 0.580533 1.430244 19.106183 -14.496376 -23.439820 -3.022748 -30.913394 3.095198 8.154848 0.000000 0.000000 0.000000 7.125000 0.000000 0.000000 -3.538413 39.438599 -0.485658
1.037441 18.478879 1.702653 -0.262231 13.541661 0.040759 0.000000 0.000000 0.000000 -23.623001 -19.942288 9.908440 0.981073 6.304992 17.671910 2.607213 -8.491449 -29.109303 0.518909 -4.616673 -12.818425 0.000000 0.000000 0.000000 8.848306 18.928434 -30.191533 -8.287363 -16.326627 53.591218 1.598121 23.156878 0.024240 -0.001221 -0.227251 0.624535 -4.101774 -1.073073 10.218542 0.529215 -1.878236 0.147064 3.140414 -0.809276 -5.433357 -1.045750 -2.628211 -14.876965 -0.546783 -3.277740 29.006101 -0.497859 -1.634997 11.994679 0.000000 0.000000 0.000000 -0.527035 3.415135 -37.087593 16.023417 -25.552340 3.656044 20.073304 -12.060342 -13.405445 0.000000 0.000000 0.000000 -7.125000 0.000000 0.000000 -6.715362 44.114554 -0.147467 0.000000 0.000000 0.000000 0.569259 1.450949 19.160082 -14.547717 -23.512183 -3.043218 -30.866791 3.025097 8.202852 0.000000 0.000000 0.000000 7.125000 0.000000 0.000000 -3.496770 39.490021 -0.475529
1.045416 18.478800 1.714025 -0.253787 13.470749 0.127393 0.000000 0.000000 0.000000 -23.662469 -19.991404 9.907086 0.977993 6.295278 17.643637 2.622532 -8.394801 -29.202792 0.518198 -4.613594 -12.809582 0.000000 0.000000 0.000000 8.801406 18.991131 -30.264668 -8.295417 -16.332312 53.619961 1.603411 23.186963 0.040029 -0.001300 -0.231906 0.637316 -4.113221 -1.072595 10.266001 0.528899 -1.880599 0.167044 3.147913 -0.810299 -5.438410 -0.988598 -2.589526 -14.891727 -0.582461 -3.226503 28.883936 -0.512223 -1.611155 11.947298 0.000000 0.000000 0.000000 -0.470167 3.452897 -37.025381 16.057391 -25.598323 3.670739 20.089331 -12.085488 -13.407096 0.000000 0.000000 0.000000 -7.125000 0.000000 0.000000 -6.701071 44.118100 -0.146599 0.000000 0.000000 0.000000 0.558684 1.473857 19.225962 -14.606640 -23.595197 -3.066756 -30.814980 2.956543 8.269349 0.000000 0.000000 0.000000 7.125000 0.000000 0.000000 -3.450092 39.562362 -0.462972
1.052997 18.478879 1.725712 -0.247786 13.399365 0.218676 0.000000 0.000000 0.000000 -23.695319 -20.040362 9.900374 0.974676 6.285013 17.613630 2.637456 -8.300754 -29.293760 0.517488 -4.610672 -12.801291 0.000000 0.000000 0.000000 8.756870 19.052960 -30.343948 -8.303551 -16.337997 53.648704 1.608464 23.216733 0.053848 -0.001300 -0.234590 0.644659 -4.123091 -1.070305 10.313933 0.528267 -1.880283 0.187733 3.153993 -0.810063 -5.443306 -0.940350 -2.554545 -14.904678 -0.611283 -3.180466 28.759172 -0.523199 -1.589755 11.899050 0.000000 0.000000 0.000000 -0.407232 3.499013 -36.969316 16.100427 -25.656599 3.689375 20.104177 -12.127340 -13.405438 0.000000 0.000000 0.000000 -7.125000 0.000000 0.000000 -6.687331 44.118100 -0.146283 0.000000 0.000000 0.000000 0.551341 1.501021 19.302716 -14.672813 -23.688296 -3.093288 -30.758046 2.882158 8.340023 0.000000 0.000000 0.000000 7.125000 0.000000 0.000000 -3.398843 39.639037 -0.449706
1.060403 18.479074 1.737747 -0.240390 13.326993 0.314317 0.000000 0.000000 0.000000 -23.727413 -20.088913 9.889885 0.971244 6.274341 17.582461 2.652090 -8.207869 -29.383624 0.516951 -4.608389 -12.794801 0.000000 0.000000 0.000000 8.710126 19.113221 -30.428574 -8.311742 -16.343799 53.677854 1.613692 23.246735 0.069003 -0.001300 -0.235184 0.646193 -4.134356 -1.066969 10.360354 0.526706 -1.878748 0.209932 3.159492 -0.809245 -5.445820 -0.896692 -2.521538 -14.924077 -0.638188 -3.136405 28.636673 -0.533130 -1.569460 11.853359 0.000000 0.000000 0.000000 -0.340753 3.549253 -36.916388 16.150260 -25.723939 3.710974 20.129015 -12.173142 -13.419873 0.000000 0.000000 0.000000 -7.125000 0.000000 0.000000 -6.667607 44.136168 -0.142830 0.000000 0.000000 0.000000 0.544985 1.529057 19.389114 -14.743575 -23.787613 -3.121796 -30.688563 2.809632 8.429288 0.000000 0.000000 0.000000 7.125000 0.000000 0.000000 -3.335918 39.735872 -0.433477
